<?xml version="1.0" encoding="UTF-8"?>
<svg width="100px" height="80px" viewBox="0 0 100 80" version="1.1" xmlns="http://www.w3.org/2000/svg" xmlns:xlink="http://www.w3.org/1999/xlink">
    <!-- Generator: Sketch 51 (57462) - http://www.bohemiancoding.com/sketch -->
    <title>Logo footer Hover</title>
    <desc>Created with Sketch.</desc>
    <defs></defs>
    <g id="Logo-footer-Hover" stroke="none" stroke-width="1" fill="none" fill-rule="evenodd">
        <g id="Group" transform="translate(2.000000, 0.000000)" fill="#333333">
            <g id="a" transform="translate(76.000000, 16.000000)">
                <path d="M0.724,14.416 C0.724,12.6853247 1.33266058,10.7640106 2.55,8.652 C3.76733942,6.53998944 5.34399032,4.72134096 7.28,3.196 C9.21600968,1.67065904 11.0933242,0.908 12.912,0.908 C14.0560057,0.908 15.0093295,1.21599692 15.772,1.832 C16.5346705,2.44800308 16.916,3.23999516 16.916,4.208 C16.916,5.46933964 16.1973405,6.1 14.76,6.1 C14.9066674,5.57199736 14.98,5.05866916 14.98,4.56 C14.98,2.91732512 14.2613405,2.096 12.824,2.096 C11.5333269,2.096 10.1620073,2.83665926 8.71,4.318 C7.25799274,5.79934074 6.07000462,7.51532358 5.146,9.466 C4.22199538,11.4166764 3.76,13.1106595 3.76,14.548 C3.76,15.6920057 4.15599604,16.264 4.948,16.264 C5.47600264,16.264 6.09199648,16.0146692 6.796,15.516 C7.50000352,15.0173308 8.1453304,14.4600031 8.732,13.844 C9.3186696,13.2279969 10.0153293,12.3993385 10.822,11.358 C11.6286707,10.3166615 12.2226648,9.51733612 12.604,8.96 L14.188,6.672 C15.3613392,6.87733436 15.948,7.24399736 15.948,7.772 C15.948,8.00666784 15.5226709,8.88665904 14.672,10.412 C13.8213291,11.937341 13.396,13.095996 13.396,13.888 C13.396,14.3866692 13.5206654,14.833998 13.77,15.23 C14.0193346,15.626002 14.3933308,15.824 14.892,15.824 C15.7426709,15.824 16.8133269,15.2153394 18.104,13.998 C19.3946731,12.7806606 20.6706604,11.072011 21.932,8.872 L22.372,9.312 C21.4626621,11.6586784 20.1793416,13.5799925 18.522,15.076 C16.8646584,16.5720075 15.2440079,17.32 13.66,17.32 C12.6333282,17.32 11.8486694,17.0193363 11.306,16.418 C10.7633306,15.8166637 10.492,15.0906709 10.492,14.24 C10.492,13.8879982 10.5359996,13.4626692 10.624,12.964 C9.3039934,14.7240088 8.12333854,16.0146626 7.082,16.836 C6.04066146,17.6573374 5.0066718,18.068 3.98,18.068 C3.01199516,18.068 2.22733634,17.7526698 1.626,17.122 C1.02466366,16.4913302 0.724,15.5893392 0.724,14.416 L0.724,14.416 Z" id="Lolita"></path>
            </g>
            <g id="t" transform="translate(65.000000, 5.000000)">
                <path d="M0.152,24.668 C0.152,22.1453207 1.00265816,18.6106894 2.704,14.064 C1.99999648,13.9466661 1.47200176,13.8293339 1.12,13.712 L1.12,12.92 C2.17600528,13.0373339 2.82133216,13.096 3.056,13.096 C4.34667312,9.75198328 5.73265926,6.85534558 7.214,4.406 C8.69534074,1.95665442 9.86132908,0.732 10.712,0.732 C10.9466678,0.732 11.1593324,0.81999912 11.35,0.996 C11.5406676,1.17200088 11.636,1.4066652 11.636,1.7 C11.636,2.1400022 11.3500029,2.90266124 10.778,3.988 C10.2059971,5.07333876 9.39933854,6.52532424 8.358,8.344 C7.31666146,10.1626758 6.45867004,11.7906595 5.784,13.228 L7.412,13.228 C9.84667884,13.228 11.9439912,13.1400009 13.704,12.964 L13.704,13.756 C10.5946511,14.1080018 8.0866762,14.284 6.18,14.284 L5.96,14.284 L5.3,14.284 C3.6866586,17.950685 2.88,21.1333198 2.88,23.832 C2.88,25.1520066 3.07066476,26.0759974 3.452,26.604 C3.83333524,27.1320026 4.4639956,27.396 5.344,27.396 C6.84000748,27.396 8.321326,26.7286733 9.788,25.394 C11.254674,24.0593267 12.5599943,22.2186784 13.704,19.872 L14.276,20.312 C13.1906612,22.8640128 11.7240092,24.9539919 9.876,26.582 C8.02799076,28.2100081 6.09201012,29.024 4.068,29.024 C1.45732028,29.024 0.152,27.5720145 0.152,24.668 L0.152,24.668 Z" id="Path"></path>
            </g>
            <g id="i" transform="translate(54.000000, 9.000000)">
                <path d="M7.368,2.54 C7.368,1.9533304 7.71999648,1.42533568 8.424,0.956 C9.12800352,0.48666432 9.846663,0.252 10.58,0.252 C11.5480048,0.252 12.032,0.6919956 12.032,1.572 C12.032,2.1586696 11.7313363,2.7086641 11.13,3.222 C10.5286637,3.7353359 9.87600352,3.992 9.172,3.992 C7.96932732,3.992 7.368,3.50800484 7.368,2.54 L7.368,2.54 Z" id="Path"></path>
                <path d="M0.504,20.448 C0.504,19.3039943 0.81199692,17.7640097 1.428,15.828 C2.04400308,13.8919903 2.8653282,12.1173414 3.892,10.504 C4.9186718,8.8906586 5.90132864,8.084 6.84,8.084 C7.48533656,8.084 7.808,8.40666344 7.808,9.052 C7.808,9.40400176 7.42667048,10.2106604 6.664,11.472 C5.90132952,12.7333396 5.13867048,14.1633253 4.376,15.762 C3.61332952,17.3606747 3.232,18.7613273 3.232,19.964 C3.232,20.9906718 3.40066498,21.6873315 3.738,22.054 C4.07533502,22.4206685 4.62532952,22.604 5.388,22.604 C7.67601144,22.604 9.93465552,20.3600224 12.164,15.872 L12.56,16.312 C11.7386626,18.7760123 10.5286747,20.6973264 8.93,22.076 C7.33132534,23.4546736 5.6520088,24.144 3.892,24.144 C2.80666124,24.144 1.9706696,23.7993368 1.384,23.11 C0.7973304,22.4206632 0.504,21.5333388 0.504,20.448 L0.504,20.448 Z" id="Path"></path>
            </g>
            <g id="l" transform="translate(44.000000, 0.000000)">
                <path d="M0.472,28.788 C0.472,26.7933234 1.04399428,24.13135 2.188,20.802 C3.33200572,17.47265 4.65932578,14.3193482 6.17,11.342 C7.68067422,8.36465178 9.2059923,5.78334426 10.746,3.598 C12.2860077,1.41265574 13.422663,0.32 14.156,0.32 C14.5666687,0.32 14.9113319,0.686663 15.19,1.42 C15.4686681,2.153337 15.608,2.87199648 15.608,3.576 C15.608,5.776011 14.4053454,9.12731082 12,13.63 C9.59465464,18.1326892 6.89601496,21.6159877 3.904,24.08 C3.52266476,25.7813418 3.332,27.2626604 3.332,28.524 C3.332,30.782678 3.97732688,31.912 5.268,31.912 C6.35333876,31.912 7.46066102,31.2226736 8.59,29.844 C9.71933898,28.4653264 10.7239956,26.8080097 11.604,24.872 L12.264,25.224 C9.74132072,30.6213603 6.99868148,33.32 4.036,33.32 L3.992,33.32 C1.6453216,33.32 0.472,31.8093484 0.472,28.788 Z M4.3,22.584 C6.70534536,20.1493212 8.96398944,16.9446865 11.076,12.97 C13.1880106,8.99531346 14.244,6.2013414 14.244,4.588 C14.244,4.11866432 14.1413344,3.884 13.936,3.884 C13.5253313,3.884 12.7113394,4.82999054 11.494,6.722 C10.2766606,8.61400946 8.96400704,11.0706516 7.556,14.092 C6.14799296,17.1133484 5.06267048,19.9439868 4.3,22.584 Z" id="Combined-Shape"></path>
            </g>
            <g id="o" transform="translate(27.000000, 16.000000)">
                <path d="M0.84,13.404 C0.84,11.5266573 1.37532798,9.65667598 2.446,7.794 C3.51667202,5.93132402 4.66799384,5 5.9,5 C6.16400132,5 6.47199824,5.0733326 6.824,5.22 C6.26666388,5.68933568 5.60667048,6.85532402 4.844,8.718 C4.08132952,10.580676 3.7,12.0399947 3.7,13.096 C3.7,14.7680084 4.22799472,15.604 5.284,15.604 C6.57467312,15.604 8.14399076,14.4306784 9.992,12.084 C9.17066256,11.40933 8.53266894,10.5293388 8.078,9.444 C7.62333106,8.35866124 7.396,7.2293392 7.396,6.056 C7.396,4.53065904 7.78466278,3.22533876 8.562,2.14 C9.33933722,1.05466124 10.3879934,0.512 11.708,0.512 C13.7320101,0.512 14.744,1.64132204 14.744,3.9 C14.744,6.18801144 13.7613432,8.798652 11.796,11.732 C12.3240026,12.0253348 12.8813304,12.172 13.468,12.172 C14.3186709,12.172 15.1986621,11.9153359 16.108,11.402 C17.0173379,10.8886641 17.7066643,10.0893388 18.176,9.004 L18.704,9.444 C18.1466639,10.7346731 17.3546718,11.6879969 16.328,12.304 C15.3013282,12.9200031 14.2453388,13.228 13.16,13.228 C12.367996,13.228 11.6640031,13.0813348 11.048,12.788 C8.7013216,15.8680154 6.45734404,17.408 4.316,17.408 C3.11332732,17.408 2.23333612,17.041337 1.676,16.308 C1.11866388,15.574663 0.84,14.6066727 0.84,13.404 Z M9.288,6.188 C9.288,8.18267664 9.78666168,9.7666608 10.784,10.94 C12.4853418,8.41732072 13.336,6.15867664 13.336,4.164 C13.336,2.52132512 12.8960044,1.7 12.016,1.7 C11.3706634,1.7 10.7546696,2.14732886 10.168,3.042 C9.5813304,3.93667114 9.288,4.98532732 9.288,6.188 Z" id="Combined-Shape"></path>
            </g>
            <g id="L">
                <path d="M0.692,30.504 C0.692,29.2133269 1.76265596,28.568 3.904,28.568 C5.19467312,28.568 6.99865508,28.8759969 9.316,29.492 C9.81466916,28.6413291 10.3279974,27.5413401 10.856,26.192 C11.3840026,24.8426599 11.8019985,23.7206711 12.11,22.826 C12.4180015,21.9313289 12.8946634,20.4573436 13.54,18.404 L14.816,14.4 C13.4666599,13.9599978 12.4033372,13.3146709 11.626,12.464 C10.8486628,11.6133291 10.46,10.6893383 10.46,9.692 C10.46,8.84132908 10.7166641,8.049337 11.23,7.316 C11.7433359,6.582663 12.395996,6.216 13.188,6.216 C12.8066648,6.74400264 12.616,7.65332688 12.616,8.944 C12.616,11.0560106 13.4519916,12.5666621 15.124,13.476 C15.7693366,11.5106568 16.3853304,9.82400704 16.972,8.416 C17.5586696,7.00799296 18.2406628,5.6440066 19.018,4.324 C19.7953372,3.0039934 20.6533286,2.00667004 21.592,1.332 C22.5306714,0.65732996 23.5279947,0.32 24.584,0.32 C25.6693388,0.32 26.6519956,0.67199648 27.532,1.376 C28.4120044,2.08000352 28.852,3.22399208 28.852,4.808 C28.852,5.86400528 28.6320022,6.96399428 28.192,8.108 C27.7519978,9.25200572 27.1213374,10.3446615 26.3,11.386 C25.4786626,12.4273385 24.3713403,13.2779967 22.978,13.938 C21.5846597,14.5980033 20.0226753,14.928 18.292,14.928 L17.588,14.928 C15.0946542,22.4373709 12.9826753,27.4826538 11.252,30.064 C11.5160013,30.1520004 12.1759947,30.3573317 13.232,30.68 L15.388,31.34 C15.7400018,31.4573339 16.3706621,31.6333322 17.28,31.868 C18.1893379,32.1026678 18.8933308,32.2713328 19.392,32.374 C19.8906692,32.4766672 20.4699967,32.5719996 21.13,32.66 C21.7900033,32.7480004 22.3839974,32.792 22.912,32.792 C24.0853392,32.792 25.1266621,32.5573357 26.036,32.088 C25.1559956,34.5813458 23.616011,35.828 21.416,35.828 C20.6533295,35.828 19.736672,35.6740015 18.666,35.366 C17.595328,35.0579985 16.7446698,34.7720013 16.114,34.508 C15.4833302,34.2439987 14.3906744,33.7526703 12.836,33.034 C11.2813256,32.3153297 10.3280018,31.8826674 9.976,31.736 C8.42132556,33.4666753 6.79334184,34.332 5.092,34.332 C3.7719934,34.332 2.7086707,33.9066709 1.902,33.056 C1.0953293,32.2053291 0.692,31.3546709 0.692,30.504 Z M17.852,14.092 C20.2573454,14.0626665 22.2959916,12.8306788 23.968,10.396 C25.6400084,7.96132116 26.476,5.70267708 26.476,3.62 C26.476,2.153326 25.9480053,1.42 24.892,1.42 C24.2466634,1.42 23.6160031,1.72799692 23,2.344 C22.3839969,2.96000308 21.7680031,3.94999318 21.152,5.314 C20.5359969,6.67800682 20.0080022,7.96132732 19.568,9.164 C19.1279978,10.3666727 18.5560035,12.0093229 17.852,14.092 Z M2.76,32.22 C3.37600308,32.7773361 4.09466256,33.056 4.916,33.056 C6.14800616,33.056 7.2773282,32.3813401 8.304,31.032 C6.13332248,30.1519956 4.4613392,29.712 3.288,29.712 C2.31999516,29.712 1.836,29.9906639 1.836,30.548 C1.836,31.1053361 2.14399692,31.6626639 2.76,32.22 Z" id="Combined-Shape"></path>
            </g>
        </g>
        <path d="M39.5167337,39.1679688 C39.5167337,40.1106818 39.2632263,40.8313777 38.756204,41.3300781 C38.2491816,41.8287785 37.5196223,42.078125 36.567504,42.078125 L35,42.078125 L35,36.3671875 L36.7339303,36.3671875 C37.6138012,36.3671875 38.2975615,36.6132788 38.7852318,37.1054688 C39.2729022,37.5976587 39.5167337,38.2851518 39.5167337,39.1679688 Z M38.8200653,39.1914062 C38.8200653,38.4466109 38.6349339,37.8854186 38.2646657,37.5078125 C37.8943975,37.1302064 37.3441639,36.9414062 36.6139485,36.9414062 L35.6579646,36.9414062 L35.6579646,41.5039062 L36.4591333,41.5039062 C37.2435343,41.5039062 37.8331163,41.3092467 38.2278971,40.9199219 C38.6226778,40.530597 38.8200653,39.9544309 38.8200653,39.1914062 Z M42.4737042,42.15625 C41.8466995,42.15625 41.3519408,41.9635436 40.9894134,41.578125 C40.6268859,41.1927064 40.445625,40.6575555 40.445625,39.9726562 C40.445625,39.2825486 40.6139848,38.734377 40.9507096,38.328125 C41.2874343,37.921873 41.7396192,37.71875 42.3072778,37.71875 C42.8388127,37.71875 43.2593898,37.8951805 43.5690218,38.2480469 C43.8786537,38.6009132 44.0334674,39.0664034 44.0334674,39.6445312 L44.0334674,40.0546875 L41.1113303,40.0546875 C41.1242317,40.5572942 41.2500178,40.9388008 41.4886924,41.1992188 C41.7273671,41.4596367 42.0634417,41.5898438 42.4969265,41.5898438 C42.9536336,41.5898438 43.4051735,41.4934905 43.8515595,41.3007812 L43.8515595,41.8789062 C43.6244961,41.9778651 43.4096921,42.0488279 43.2071412,42.0917969 C43.0045903,42.1347658 42.7601137,42.15625 42.4737042,42.15625 Z M42.2995371,38.2617188 C41.9589419,38.2617188 41.6873729,38.3736968 41.484822,38.5976562 C41.2822711,38.8216157 41.1629356,39.1315084 41.1268119,39.5273438 L43.3445397,39.5273438 C43.3445397,39.1184875 43.2542318,38.8053396 43.0736131,38.5878906 C42.8929945,38.3704416 42.6349717,38.2617188 42.2995371,38.2617188 Z M47.8651438,40.9101562 C47.8651438,41.3085957 47.7180708,41.6158843 47.4239205,41.8320312 C47.1297701,42.0481782 46.7169337,42.15625 46.1853988,42.15625 C45.6229007,42.15625 45.184262,42.0664071 44.8694695,41.8867188 L44.8694695,41.2851562 C45.0733106,41.3893234 45.2919849,41.4713539 45.525499,41.53125 C45.7590131,41.5911461 45.9841379,41.6210938 46.2008803,41.6210938 C46.536315,41.6210938 46.7943377,41.5670578 46.9749564,41.4589844 C47.155575,41.3509109 47.245883,41.186199 47.245883,40.9648438 C47.245883,40.7981762 47.1742817,40.6555996 47.0310769,40.5371094 C46.8878721,40.4186192 46.6085624,40.2786466 46.1931396,40.1171875 C45.7983588,39.9687493 45.517759,39.8391933 45.3513319,39.7285156 C45.1849047,39.617838 45.0610538,39.4921882 44.9797754,39.3515625 C44.898497,39.2109368 44.8578584,39.0429697 44.8578584,38.8476562 C44.8578584,38.4986962 44.9984808,38.2233083 45.2797298,38.0214844 C45.5609789,37.8196604 45.9467229,37.71875 46.4369735,37.71875 C46.8936807,37.71875 47.34006,37.8124991 47.7761251,38 L47.5477726,38.5273438 C47.1220287,38.3502595 46.7362846,38.2617188 46.390529,38.2617188 C46.0860575,38.2617188 45.8564173,38.3098954 45.7016013,38.40625 C45.5467853,38.5026046 45.4693785,38.6354158 45.4693785,38.8046875 C45.4693785,38.9192714 45.498406,39.0169267 45.556462,39.0976562 C45.614518,39.1783858 45.7080513,39.255208 45.8370646,39.328125 C45.9660779,39.401042 46.2137798,39.5065097 46.5801776,39.6445312 C47.0833295,39.829428 47.4232745,40.0156241 47.6000228,40.203125 C47.776771,40.3906259 47.8651438,40.6263007 47.8651438,40.9101562 Z M49.5526296,42.078125 L48.9101465,42.078125 L48.9101465,37.796875 L49.5526296,37.796875 L49.5526296,42.078125 Z M48.8559611,36.6367188 C48.8559611,36.4882805 48.8920843,36.3795576 48.9643318,36.3105469 C49.0365792,36.2415361 49.1268872,36.2070312 49.2352584,36.2070312 C49.3384691,36.2070312 49.4274869,36.2421871 49.5023146,36.3125 C49.5771424,36.3828129 49.6145557,36.4908847 49.6145557,36.6367188 C49.6145557,36.7825528 49.5771424,36.8912757 49.5023146,36.9628906 C49.4274869,37.0345056 49.3384691,37.0703125 49.2352584,37.0703125 C49.1268872,37.0703125 49.0365792,37.0345056 48.9643318,36.9628906 C48.8920843,36.8912757 48.8559611,36.7825528 48.8559611,36.6367188 Z M51.3267857,41.7411098 C51.2194483,41.6915956 51.1292781,41.6151326 51.0562723,41.5117188 C50.9827347,41.4075516 50.9459665,41.286459 50.9459665,41.1484375 C50.9459665,40.9921867 50.9872501,40.8554693 51.0698186,40.7382812 C51.1523871,40.6210932 51.2826886,40.507813 51.460727,40.3984375 C51.2414044,40.3072912 51.0627236,40.1523448 50.9246794,39.9335938 C50.7866351,39.7148427 50.717614,39.4648452 50.717614,39.1835938 C50.717614,38.7148414 50.8569463,38.3535169 51.1356151,38.0996094 C51.4142839,37.8457019 51.8090587,37.71875 52.3199514,37.71875 C52.5418543,37.71875 52.741822,37.7447914 52.9198604,37.796875 L54.3867345,37.796875 L54.3867345,38.2070312 L53.6010473,38.3007812 C53.6732947,38.3919275 53.7378004,38.511067 53.7945663,38.6582031 C53.8513321,38.8053393 53.8797147,38.9713532 53.8797147,39.15625 C53.8797147,39.5755229 53.7378021,39.910155 53.4539728,40.1601562 C53.1701435,40.4101575 52.7805292,40.5351562 52.285118,40.5351562 C52.158685,40.5351562 52.0399945,40.5247397 51.929043,40.5039062 C51.6555348,40.6497403 51.5187827,40.8333322 51.5187827,41.0546875 C51.5187827,41.1718756 51.5665169,41.2584633 51.6619868,41.3144531 C51.7574567,41.370443 51.9213011,41.3984375 52.1535251,41.3984375 L52.9043788,41.3984375 C53.3636663,41.3984375 53.7165124,41.4960928 53.9629278,41.6914062 C54.2093433,41.8867197 54.3325491,42.1705711 54.3325491,42.5429688 C54.3325491,43.0169295 54.1441925,43.378254 53.7674736,43.6269531 C53.3907547,43.8756523 52.8411662,44 52.1186917,44 C51.5639344,44 51.1362617,43.8958344 50.8356606,43.6875 C50.5350596,43.4791656 50.3847613,43.1848977 50.3847613,42.8046875 C50.3847613,42.5442695 50.4673286,42.3190114 50.6324657,42.1289062 C50.7976017,41.9388023 51.0298204,41.8098977 51.3291287,41.7421887 L51.3267857,41.7411098 Z M51.0040222,42.796875 C51.0040222,43.028647 51.1007807,43.2044265 51.2943007,43.3242188 C51.4878207,43.444011 51.7651951,43.5039062 52.1264324,43.5039062 C52.6657081,43.5039062 53.0649983,43.4225269 53.3243151,43.2597656 C53.5836319,43.0970044 53.7132883,42.8763035 53.7132883,42.5976562 C53.7132883,42.3658843 53.642332,42.2050786 53.5004174,42.1152344 C53.3585027,42.0253902 53.0914492,41.9804688 52.6992487,41.9804688 L51.929043,41.9804688 C51.6374729,41.9804688 51.4104129,42.0507805 51.2478561,42.1914062 C51.0852993,42.332032 51.0040222,42.5338529 51.0040222,42.796875 Z M51.3523564,39.1679688 C51.3523564,39.4674494 51.4362138,39.6940096 51.6039311,39.8476562 C51.7716484,40.0013029 52.005159,40.078125 52.3044699,40.078125 C52.9314746,40.078125 53.2449723,39.7708364 53.2449723,39.15625 C53.2449723,38.5130176 52.9276043,38.1914062 52.2928588,38.1914062 C51.9909676,38.1914062 51.7587471,38.2734367 51.5961903,38.4375 C51.4336336,38.6015633 51.3523564,38.8450505 51.3523564,39.1679688 Z M58.1603552,42.078125 L58.1603552,39.3085938 C58.1603552,38.9596337 58.0816582,38.6992196 57.924262,38.5273438 C57.7668657,38.3554679 57.520454,38.2695312 57.1850194,38.2695312 C56.7412135,38.2695312 56.4161048,38.3906238 56.2096835,38.6328125 C56.0032622,38.8750012 55.9000531,39.2747368 55.9000531,39.8320312 L55.9000531,42.078125 L55.25757,42.078125 L55.25757,37.796875 L55.7800713,37.796875 L55.8845716,38.3828125 L55.9155346,38.3828125 C56.0471282,38.1718739 56.2316145,38.0084641 56.468999,37.8925781 C56.7063835,37.7766921 56.9708569,37.71875 57.262427,37.71875 C57.7733197,37.71875 58.1577736,37.8430977 58.4158003,38.0917969 C58.6738269,38.340496 58.8028383,38.7382785 58.8028383,39.2851562 L58.8028383,42.078125 L58.1603552,42.078125 Z M61.914624,42.15625 C61.2876192,42.15625 60.7928606,41.9635436 60.4303332,41.578125 C60.0678057,41.1927064 59.8865447,40.6575555 59.8865447,39.9726562 C59.8865447,39.2825486 60.0549046,38.734377 60.3916294,38.328125 C60.7283541,37.921873 61.180539,37.71875 61.7481976,37.71875 C62.2797325,37.71875 62.7003096,37.8951805 63.0099416,38.2480469 C63.3195735,38.6009132 63.4743872,39.0664034 63.4743872,39.6445312 L63.4743872,40.0546875 L60.5522501,40.0546875 C60.5651515,40.5572942 60.6909376,40.9388008 60.9296122,41.1992188 C61.1682868,41.4596367 61.5043615,41.5898438 61.9378462,41.5898438 C62.3945534,41.5898438 62.8460932,41.4934905 63.2924793,41.3007812 L63.2924793,41.8789062 C63.0654159,41.9778651 62.8506119,42.0488279 62.648061,42.0917969 C62.4455101,42.1347658 62.2010335,42.15625 61.914624,42.15625 Z M61.7404569,38.2617188 C61.3998617,38.2617188 61.1282927,38.3736968 60.9257418,38.5976562 C60.7231909,38.8216157 60.6038554,39.1315084 60.5677317,39.5273438 L62.7854595,39.5273438 C62.7854595,39.1184875 62.6951515,38.8053396 62.5145329,38.5878906 C62.3339143,38.3704416 62.0758915,38.2617188 61.7404569,38.2617188 Z M67.4570084,41.5039062 L67.422175,41.5039062 C67.1254444,41.9388043 66.6816452,42.15625 66.0907642,42.15625 C65.5360069,42.15625 65.1044639,41.9648457 64.796122,41.5820312 C64.4877802,41.1992168 64.3336116,40.6549514 64.3336116,39.9492188 C64.3336116,39.2434861 64.4884253,38.6953145 64.7980572,38.3046875 C65.1076892,37.9140605 65.5385872,37.71875 66.0907642,37.71875 C66.6661636,37.71875 67.1073825,37.9296854 67.4144342,38.3515625 L67.4647492,38.3515625 L67.4376565,38.0429688 L67.422175,37.7421875 L67.422175,36 L68.0646581,36 L68.0646581,42.078125 L67.5421568,42.078125 L67.4570084,41.5039062 Z M66.1720422,41.6132812 C66.6106875,41.6132812 66.9287005,41.4928397 67.1260909,41.2519531 C67.3234813,41.0110665 67.422175,40.6223985 67.422175,40.0859375 L67.422175,39.9492188 C67.422175,39.3424449 67.3221912,38.9095065 67.1222205,38.6503906 C66.9222499,38.3912747 66.6029467,38.2617188 66.1643014,38.2617188 C65.7875825,38.2617188 65.4992421,38.4095037 65.2992715,38.7050781 C65.0993008,39.0006525 64.999317,39.4179661 64.999317,39.9570312 C64.999317,40.503909 65.0986558,40.9166653 65.2973363,41.1953125 C65.4960168,41.4739597 65.7875825,41.6132812 66.1720422,41.6132812 Z M74.9500645,42.078125 L74.1721181,39.5664062 C74.123093,39.4127596 74.0314949,39.0638048 73.8973211,38.5195312 L73.866358,38.5195312 C73.7631474,38.9752627 73.6728394,39.3268217 73.5954314,39.5742188 L72.7942627,42.078125 L72.0511497,42.078125 L70.893906,37.796875 L71.5673522,37.796875 C71.8408604,38.8724012 72.0492138,39.6914034 72.1924186,40.2539062 C72.3356234,40.8164091 72.4175456,41.1953115 72.4381878,41.390625 L72.4691508,41.390625 C72.4975337,41.2421868 72.5433328,41.0501314 72.6065493,40.8144531 C72.6697658,40.5787749 72.7245957,40.3919278 72.7710404,40.2539062 L73.5489869,37.796875 L74.2456553,37.796875 L75.0042498,40.2539062 C75.1487447,40.7018252 75.2467934,41.0781235 75.2983987,41.3828125 L75.3293618,41.3828125 C75.3396828,41.289062 75.3674203,41.1445322 75.4125749,40.9492188 C75.4577296,40.7539053 75.7267183,39.7031345 76.2195492,37.796875 L76.8852546,37.796875 L75.7125294,42.078125 L74.9500645,42.078125 Z M78.294073,42.078125 L77.6515899,42.078125 L77.6515899,37.796875 L78.294073,37.796875 L78.294073,42.078125 Z M77.5974046,36.6367188 C77.5974046,36.4882805 77.6335278,36.3795576 77.7057752,36.3105469 C77.7780227,36.2415361 77.8683306,36.2070312 77.9767018,36.2070312 C78.0799125,36.2070312 78.1689303,36.2421871 78.2437581,36.3125 C78.3185858,36.3828129 78.3559991,36.4908847 78.3559991,36.6367188 C78.3559991,36.7825528 78.3185858,36.8912757 78.2437581,36.9628906 C78.1689303,37.0345056 78.0799125,37.0703125 77.9767018,37.0703125 C77.8683306,37.0703125 77.7780227,37.0345056 77.7057752,36.9628906 C77.6335278,36.8912757 77.5974046,36.7825528 77.5974046,36.6367188 Z M81.0265614,41.6210938 C81.1400932,41.6210938 81.2497528,41.6126303 81.3555438,41.5957031 C81.4613347,41.578776 81.5451921,41.561198 81.6071185,41.5429688 L81.6071185,42.0390625 C81.5374513,42.0729168 81.4348872,42.1009113 81.2994232,42.1230469 C81.1639593,42.1451824 81.0420435,42.15625 80.9336723,42.15625 C80.1131476,42.15625 79.7028914,41.7200564 79.7028914,40.8476562 L79.7028914,38.3007812 L79.0952417,38.3007812 L79.0952417,37.9882812 L79.7028914,37.71875 L79.973818,36.8046875 L80.3453745,36.8046875 L80.3453745,37.796875 L81.5761554,37.796875 L81.5761554,38.3007812 L80.3453745,38.3007812 L80.3453745,40.8203125 C80.3453745,41.0781263 80.4060099,41.276041 80.5272824,41.4140625 C80.6485549,41.552084 80.8149796,41.6210938 81.0265614,41.6210938 Z M85.3575169,42.078125 L85.3575169,39.3085938 C85.3575169,38.9596337 85.2788199,38.6992196 85.1214237,38.5273438 C84.9640274,38.3554679 84.7176157,38.2695312 84.3821811,38.2695312 C83.935795,38.2695312 83.6100412,38.3919259 83.4049101,38.6367188 C83.1997789,38.8815116 83.0972148,39.2825493 83.0972148,39.8398438 L83.0972148,42.078125 L82.4547317,42.078125 L82.4547317,36 L83.0972148,36 L83.0972148,37.8398438 C83.0972148,38.061199 83.0868939,38.2447909 83.0662518,38.390625 L83.1049556,38.390625 C83.2313887,38.1848948 83.4113595,38.0227871 83.6448736,37.9042969 C83.8783878,37.7858067 84.1447963,37.7265625 84.4441072,37.7265625 C84.9627407,37.7265625 85.35171,37.8509102 85.6110268,38.0996094 C85.8703436,38.3483085 86,38.7434869 86,39.2851562 L86,42.078125 L85.3575169,42.078125 Z" id="Designed-with" fill="#000000"></path>
        <g id="valentines-heart" transform="translate(89.000000, 36.000000)" fill="#000000" fill-rule="nonzero">
            <path d="M7.89402937,2.14699065 C7.89402937,0.96964486 6.93958879,0.0152523364 5.76224299,0.0152523364 C4.99345794,0.0152523364 4.32206676,0.423540721 3.94699065,1.03371429 C3.57196262,0.423540721 2.90028304,0.0152523364 2.13151402,0.0152523364 C0.954168224,0.0152523364 0,0.96964486 0,2.14699065 C0,2.78798932 0.284042724,3.36145794 0.731711615,3.75197864 L3.75245928,6.77285447 C3.80404806,6.82444326 3.87401335,6.8534259 3.94699065,6.8534259 C4.01996796,6.8534259 4.08993324,6.82444326 4.14152203,6.77285447 L7.16226969,3.75197864 C7.60995461,3.36145794 7.89402937,2.78798932 7.89402937,2.14699065 Z" id="Shape"></path>
        </g>
    </g>
</svg>